HIERARCHY
ROOT Hips
{
	OFFSET 0.000000 89.005402 0.000000
	CHANNELS 6 Xposition Yposition Zposition Xrotation Yrotation Zrotation
	JOINT Spine
	{
		OFFSET 0.116900 10.681000 0.373400
		CHANNELS 3 Xrotation Yrotation Zrotation
		JOINT Spine1
		{
			OFFSET 0.000000 13.840401 0.053500
			CHANNELS 3 Xrotation Yrotation Zrotation
			JOINT Spine2
			{
				OFFSET 0.000000 14.712700 -0.366200
				CHANNELS 3 Xrotation Yrotation Zrotation
				JOINT Neck
				{
					OFFSET 0.000000 35.415497 -3.314200
					CHANNELS 3 Xrotation Yrotation Zrotation
					JOINT Head
					{
						OFFSET 0.000000 16.899200 1.218300
						CHANNELS 3 Xrotation Yrotation Zrotation
						JOINT HeadTop_End
						{
							OFFSET 0.000000 22.206207 2.192500
							CHANNELS 3 Xrotation Yrotation Zrotation
							End Site
							{
								OFFSET 0.000000 22.314178 0.000000
							}
						}
					}
				}
				JOINT LeftShoulder
				{
					OFFSET 12.896400 26.716293 -4.548400
					CHANNELS 3 Xrotation Yrotation Zrotation
					JOINT LeftArm
					{
						OFFSET 19.027000 -4.857010 -1.718400
						CHANNELS 3 Xrotation Yrotation Zrotation
						JOINT LeftForeArm
						{
							OFFSET 24.179897 0.000000 0.000000
							CHANNELS 3 Xrotation Yrotation Zrotation
							JOINT LeftHand
							{
								OFFSET 27.156403 0.000000 0.000000
								CHANNELS 3 Xrotation Yrotation Zrotation
								JOINT LeftHandIndex1
								{
									OFFSET 16.441200 0.000000 0.000000
									CHANNELS 3 Xrotation Yrotation Zrotation
									JOINT LeftHandIndex2
									{
										OFFSET 4.821899 0.000000 0.000000
										CHANNELS 3 Xrotation Yrotation Zrotation
										JOINT LeftHandIndex3
										{
											OFFSET 6.386497 0.000000 0.000000
											CHANNELS 3 Xrotation Yrotation Zrotation
											JOINT LeftHandIndex4
											{
												OFFSET 5.188988 0.000000 0.000000
												CHANNELS 3 Xrotation Yrotation Zrotation
												End Site
												{
													OFFSET -0.178703 5.185913 0.000177
												}
											}
										}
									}
								}
								JOINT LeftHandThumb1
								{
									OFFSET 6.534897 -5.032593 5.900300
									CHANNELS 3 Xrotation Yrotation Zrotation
									JOINT LeftHandThumb2
									{
										OFFSET 3.818176 -2.204422 2.204423
										CHANNELS 3 Xrotation Yrotation Zrotation
										JOINT LeftHandThumb3
										{
											OFFSET 3.252098 -1.877594 1.877601
											CHANNELS 3 Xrotation Yrotation Zrotation
											JOINT LeftHandThumb4
											{
												OFFSET 5.251778 -3.032120 3.032117
												CHANNELS 3 Xrotation Yrotation Zrotation
												End Site
												{
													OFFSET 0.000023 6.780014 0.000000
												}
											}
										}
									}
								}
							}
						}
					}
				}
				JOINT RightShoulder
				{
					OFFSET -12.896300 26.716293 -4.548400
					CHANNELS 3 Xrotation Yrotation Zrotation
					JOINT RightArm
					{
						OFFSET -19.027000 -4.857010 -1.718400
						CHANNELS 3 Xrotation Yrotation Zrotation
						JOINT RightForeArm
						{
							OFFSET -24.179897 0.000000 0.000000
							CHANNELS 3 Xrotation Yrotation Zrotation
							JOINT RightHand
							{
								OFFSET -27.156403 0.000000 0.000000
								CHANNELS 3 Xrotation Yrotation Zrotation
								JOINT RightHandThumb1
								{
									OFFSET -6.591202 -4.852203 5.988100
									CHANNELS 3 Xrotation Yrotation Zrotation
									JOINT RightHandThumb2
									{
										OFFSET -3.818176 -2.204422 2.204423
										CHANNELS 3 Xrotation Yrotation Zrotation
										JOINT RightHandThumb3
										{
											OFFSET -3.252098 -1.877594 1.877601
											CHANNELS 3 Xrotation Yrotation Zrotation
											JOINT RightHandThumb4
											{
												OFFSET -5.251778 -3.032120 3.032117
												CHANNELS 3 Xrotation Yrotation Zrotation
												End Site
												{
													OFFSET -0.000023 6.780014 0.000000
												}
											}
										}
									}
								}
								JOINT RightHandIndex1
								{
									OFFSET -16.029404 0.000000 0.000000
									CHANNELS 3 Xrotation Yrotation Zrotation
									JOINT RightHandIndex2
									{
										OFFSET -5.213303 0.000000 0.000000
										CHANNELS 3 Xrotation Yrotation Zrotation
										JOINT RightHandIndex3
										{
											OFFSET -6.386528 0.000000 0.000000
											CHANNELS 3 Xrotation Yrotation Zrotation
											JOINT RightHandIndex4
											{
												OFFSET -5.189026 0.000000 0.000000
												CHANNELS 3 Xrotation Yrotation Zrotation
												End Site
												{
													OFFSET 0.236702 5.183624 0.001972
												}
											}
										}
									}
								}
							}
						}
					}
				}
			}
		}
	}
	JOINT LeftUpLeg
	{
		OFFSET 14.073000 -7.904099 -1.463000
		CHANNELS 3 Xrotation Yrotation Zrotation
		JOINT LeftLeg
		{
			OFFSET -0.109806 -34.073280 4.093200
			CHANNELS 3 Xrotation Yrotation Zrotation
			JOINT LeftFoot
			{
				OFFSET 0.109806 -29.899420 -6.319000
				CHANNELS 3 Xrotation Yrotation Zrotation
				JOINT LeftToeBase
				{
					OFFSET 1.551100 -14.988700 20.535801
					CHANNELS 3 Xrotation Yrotation Zrotation
					JOINT LeftToe_End
					{
						OFFSET 0.221200 0.570800 13.248301
						CHANNELS 3 Xrotation Yrotation Zrotation
						End Site
						{
							OFFSET 0.000000 13.262435 0.000000
						}
					}
				}
			}
		}
	}
	JOINT RightUpLeg
	{
		OFFSET -13.839300 -7.904099 -1.463000
		CHANNELS 3 Xrotation Yrotation Zrotation
		JOINT RightLeg
		{
			OFFSET 0.109694 -34.073219 4.093300
			CHANNELS 3 Xrotation Yrotation Zrotation
			JOINT RightFoot
			{
				OFFSET -0.109694 -29.899384 -6.319200
				CHANNELS 3 Xrotation Yrotation Zrotation
				JOINT RightToeBase
				{
					OFFSET -1.551100 -14.988700 20.535801
					CHANNELS 3 Xrotation Yrotation Zrotation
					JOINT RightToe_End
					{
						OFFSET -0.221200 0.570900 13.248299
						CHANNELS 3 Xrotation Yrotation Zrotation
						End Site
						{
							OFFSET 0.000000 13.262440 0.000000
						}
					}
				}
			}
		}
	}
}
MOTION
Frames: 5
Frame Time: 0.033333
-26.740417 107.513214 319.795624 384.415368 39.890306 -107.705198 7.747372 3.100984 -0.088536 5.133965 2.516736 -2.236828 5.891168 5.482326 6.854947 5.684216 3.333517 6.319620 -11.338730 -2.568676 11.199679 0.000000 -0.000000 0.000000 0.642806 -3.521677 -23.097027 -46.117690 -22.082364 -25.254565 -0.000001 -43.689906 0.000000 -9.665058 -8.902844 17.939038 16.165468 3.869732 -19.913758 0.088507 1.015503 -9.960724 0.014010 0.405399 -3.959163 0.000000 0.000001 -0.000001 -12.064491 7.073830 -7.648944 1.462956 4.298584 12.851319 -5.767614 -2.158174 20.269695 -0.000001 -0.000001 0.000000 -3.858958 14.743662 29.873123 6.840369 16.777494 14.076040 -0.000030 115.318933 0.000032 -33.473821 14.098970 -14.897841 -20.146031 13.949039 -5.526250 7.172078 -29.143246 -2.469492 -2.382225 1.436668 -15.102431 0.000002 -0.000003 0.000001 0.377349 -4.898580 8.111322 0.016913 -0.397242 4.882556 0.311704 -1.676769 21.060040 0.000001 -0.000001 0.000001 -85.635122 1.680128 62.403627 39.177750 -6.077264 -4.854474 22.767160 -1.180273 -3.797079 -6.550647 -0.000002 0.000010 -0.000001 -0.000001 -0.000001 -26.798322 6.325878 -37.209822 38.491937 -7.257143 -9.395046 31.179909 9.941106 11.858481 2.816399 0.000010 -0.000013 -0.000001 0.000003 0.000002 
-25.824169 98.414291 329.728760 392.058459 38.981283 -114.625095 6.646612 2.962988 -1.314637 4.608350 1.837391 -2.752927 5.007346 4.915828 6.591822 4.533372 2.569776 9.183617 -11.874410 -3.475511 13.372843 -0.000000 0.000001 0.000000 0.585859 -3.155852 -18.512473 -49.509074 -16.702382 -25.145555 -0.000005 -51.725890 0.000001 -1.373046 2.951749 23.614269 16.418067 5.183409 -18.094351 0.027010 0.562534 -5.498109 0.001716 0.142235 -1.387980 -0.000000 0.000002 0.000001 -10.634438 5.049982 -5.580217 2.225661 4.339017 12.604084 -5.700267 -2.599343 20.636561 -0.000002 -0.000001 0.000002 -4.491654 15.774185 30.580680 -9.563417 29.678070 29.729928 -0.000065 102.771698 0.000052 -11.474557 6.966084 -15.432560 -20.064480 15.609566 -5.602499 7.548508 -29.103337 -4.061662 -1.867829 1.490131 -14.845899 0.000001 0.000001 0.000002 0.238656 -4.282683 6.133246 0.017557 -0.404517 4.972115 0.329326 -1.721801 21.654309 -0.000000 -0.000000 -0.000000 -100.317106 -8.422400 62.849891 41.744624 -5.133971 -7.139330 28.359118 3.266807 0.195467 -36.914181 -4.340004 10.416544 -0.000000 -0.000002 0.000002 -22.379513 2.078867 -45.839609 33.129296 -5.894148 -8.838433 34.915575 16.572605 5.418129 0.345778 0.000016 -0.000023 -0.000000 0.000001 -0.000002 
-24.546906 91.097473 337.742462 399.585792 35.731096 -119.998132 4.693591 2.795529 -2.725311 5.067967 1.892972 -4.030107 6.048271 4.697519 5.101000 2.143292 1.845125 10.084547 -13.257263 -5.319168 15.049229 -0.000001 -0.000001 0.000000 0.523161 -3.094647 -15.430044 -55.364793 -18.433666 -26.817906 0.000000 -54.160805 -0.000003 3.520046 6.797502 25.655101 16.520050 6.276899 -16.187374 0.001316 0.124287 -1.212947 0.001991 -0.152881 1.492087 -0.000001 -0.000000 -0.000000 -9.211296 2.967419 -3.571508 3.021627 4.626477 12.263897 -5.624995 -3.003562 20.977329 -0.000001 0.000002 -0.000002 -4.263386 18.299856 25.216476 -39.763015 38.278999 54.689325 -0.000473 80.832488 0.000468 8.199622 -0.925964 -10.820816 -19.997144 17.104406 -5.682854 7.917745 -28.958049 -5.508770 -1.412971 1.535116 -14.619976 -0.000000 -0.000001 -0.000001 0.120889 -3.406045 4.311727 0.017550 -0.404347 4.969918 0.340213 -1.748985 22.014133 0.000001 -0.000000 0.000000 -108.076009 -9.098213 53.595169 46.498261 -4.318423 -9.196732 12.042437 0.052359 10.843200 -42.500716 -2.885622 6.762479 -0.000000 0.000000 0.000000 -21.015816 1.939739 -49.197989 34.969442 -5.542965 -8.590281 32.487156 21.804776 -0.737496 -2.413630 0.000003 -0.000027 -0.000001 -0.000000 0.000001 
-23.568771 86.092224 345.457611 404.802062 28.367618 -123.524449 3.140066 2.338710 -4.110923 5.797304 2.291417 -6.570750 7.939111 4.784124 2.394795 -1.406588 1.302093 7.616847 -15.099165 -9.287662 17.110730 -0.000002 -0.000000 -0.000001 0.516043 -3.007771 -12.779835 -65.516049 -20.161327 -30.147594 0.000075 -61.286837 0.000083 8.234304 8.365470 25.527736 16.510768 7.136492 -14.342243 -0.000001 0.000001 0.000001 0.018464 -0.465267 4.545160 -0.000000 -0.000001 0.000001 -7.856331 0.923644 -1.709683 3.851420 5.208009 11.803903 -5.540545 -3.359558 21.282687 -0.000001 -0.000001 0.000003 -2.801098 20.672812 16.823043 -67.317033 30.420460 70.310309 -0.000027 66.489289 0.000040 20.071800 -5.194573 6.036057 -19.944062 18.388649 -5.760094 8.265344 -28.715198 -6.694338 -1.028768 1.551504 -14.445054 0.000001 -0.000001 0.000002 0.047068 -2.351984 2.692908 0.017430 -0.402990 4.953190 0.346439 -1.764288 22.217082 -0.000000 -0.000000 -0.000001 -107.768876 -1.684618 45.803068 36.325500 -1.554576 -7.420937 -16.457699 1.571488 12.246638 -27.578204 -0.000006 -0.000009 -0.000000 -0.000001 0.000000 -26.792985 8.851902 -43.020834 47.221906 -1.671866 -9.254498 27.900708 17.242830 -3.549678 -7.189448 0.000002 0.000002 0.000000 -0.000000 0.000002 
-22.860802 78.104309 353.494598 408.476922 17.726166 -124.623905 2.240007 2.582581 -5.891634 6.268803 2.689044 -9.670399 9.481621 5.101466 -0.427472 -5.678205 1.010486 1.908203 -17.372257 -15.005200 19.105499 0.000001 -0.000003 -0.000001 0.550594 -2.612407 -9.485102 -77.550446 -21.905376 -38.369117 0.000005 -67.008247 -0.000008 13.185525 7.556660 28.765004 16.414212 7.678966 -12.659952 -0.000005 -0.000002 -0.000038 0.052799 -0.785583 7.689669 0.000001 0.000000 0.000003 -6.644352 -1.099229 -0.049928 4.702416 6.064199 11.226024 -5.445290 -3.659723 21.546161 0.000002 -0.000000 0.000000 -0.972536 18.017033 10.107204 -88.669277 22.407008 74.815474 -0.000008 51.515469 0.000008 22.747964 0.006011 6.225886 -19.904401 19.399657 -5.825226 8.593589 -28.371810 -7.724196 -0.729926 1.541043 -14.324689 0.000001 -0.000001 -0.000002 0.023645 -1.106955 1.243578 0.016607 -0.393372 4.834695 0.345868 -1.762889 22.198521 -0.000000 -0.000000 0.000001 -118.003976 -1.954896 40.242361 45.560258 -3.179766 -7.167683 -32.908927 -0.954364 11.383203 -6.731840 -0.000003 0.000003 0.000000 0.000001 0.000000 -35.998710 15.161732 -39.560937 51.938907 -3.523760 -9.200332 26.311770 14.183952 -1.681785 -12.853480 0.000000 0.000012 -0.000000 0.000000 0.000001 
